<svg fill="#715a33" version="1.1" id="Layer_1" xmlns="http://www.w3.org/2000/svg" xmlns:xlink="http://www.w3.org/1999/xlink" x="0px" y="0px"
	 viewBox="0 0 512.001 512.001" style="enable-background:new 0 0 512.001 512.001;" xml:space="preserve">
	<g>
		<circle cx="258.838" cy="454.038" r="9.135"/>
	</g>
	<g>
		<path d="M378.221,15.873C369.795,5.785,357.424,0,344.281,0H167.719c-13.143,0-25.514,5.785-33.939,15.873
			c-8.425,10.087-11.914,23.291-9.572,36.223c0.015,0.077,0.028,0.155,0.045,0.231l47.37,227.951
			c-9.471,4.157-16.105,13.62-16.105,24.607c0,11.153,6.833,20.737,16.531,24.794l-10.932,123.899
			c-1.32,14.967,3.74,29.905,13.887,40.986s24.583,17.436,39.608,17.436h82.904c15.025,0,29.46-6.355,39.608-17.436
			c10.148-11.081,15.207-26.02,13.887-40.986l-10.936-123.947c9.635-4.085,16.412-13.64,16.412-24.746
			c0-14.813-12.052-26.863-26.864-26.863H189.814l-47.65-229.287c-1.336-7.556,0.716-15.26,5.637-21.152
			c4.945-5.92,12.205-9.315,19.918-9.315h15.621l8.557,99.035c0.41,4.76,4.399,8.349,9.09,8.349c0.264,0,0.53-0.011,0.797-0.034
			c5.026-0.434,8.75-4.861,8.315-9.887l-8.423-97.462h23.543l1.105,44.783c0.123,4.967,4.187,8.909,9.127,8.909
			c0.077,0,0.154,0,0.229-0.002c5.045-0.124,9.031-4.314,8.907-9.357l-1.091-44.332h100.786c7.713,0,14.973,3.396,19.918,9.315
			c4.921,5.891,6.973,13.595,5.637,21.151l-39.461,190.151c-1.027,4.94,2.146,9.775,7.084,10.802
			c4.945,1.027,9.775-2.146,10.802-7.085l39.488-190.275c0.017-0.077,0.03-0.153,0.045-0.231
			C390.134,39.163,386.645,25.961,378.221,15.873z M323.647,482.227c-6.792,7.418-16.073,11.505-26.132,11.505H214.61
			c-10.059,0-19.34-4.085-26.133-11.505c-6.792-7.419-10.047-17.023-9.163-27.043l10.891-123.435h131.716l10.891,123.435
			C333.695,465.204,330.441,474.808,323.647,482.227z M182.358,296.293c0.005,0,0.009,0,0.013,0c0.012,0,0.023-0.001,0.035-0.001
			h147.214c4.738-0.001,8.594,3.855,8.594,8.594c0,4.739-3.856,8.594-8.595,8.594H182.381c-4.739,0-8.595-3.856-8.595-8.594
			C173.786,300.155,177.63,296.305,182.358,296.293z"/>
	</g>
</svg>

